<svg width="24" height="24" viewBox="0 0 24 24" fill="none" xmlns="http://www.w3.org/2000/svg">
<path fill-rule="evenodd" clip-rule="evenodd" d="M7.93016 4.18079C6.96468 4.18079 6.01268 4.453 5.16934 4.96919C2.55924 6.56905 1.64069 10.1409 3.15674 12.9284C3.44041 13.4504 3.94845 14.0773 4.60078 14.7565C5.24948 15.4319 6.02596 16.1438 6.83181 16.8358C8.44336 18.2196 10.1582 19.5114 11.1714 20.2533L11.1717 20.2535C11.4145 20.4316 11.6997 20.5249 11.9993 20.5249C12.2984 20.5249 12.5842 20.432 12.8323 20.2527C13.8456 19.5107 15.56 18.2193 17.1711 16.8358C17.977 16.1438 18.7534 15.4319 19.4021 14.7565C20.0545 14.0773 20.5624 13.4505 20.8461 12.9285C22.3581 10.1408 21.4394 6.56886 18.8292 4.96909C17.9859 4.45297 17.034 4.18079 16.0685 4.18079C14.622 4.18079 13.2604 4.76452 12.2368 5.80994L11.9993 6.05247L11.7619 5.80994C10.7382 4.76452 9.3767 4.18079 7.93016 4.18079ZM4.82121 4.41558C5.76579 3.83742 6.83784 3.5293 7.93016 3.5293C9.45142 3.5293 10.8853 4.10286 11.9993 5.12715C13.1134 4.10286 14.5473 3.5293 16.0685 3.5293C17.1609 3.5293 18.2329 3.83742 19.1775 4.41558C22.0997 6.20659 23.0955 10.1624 21.4282 13.2361C21.1026 13.8354 20.5462 14.5125 19.8815 15.2046C19.2131 15.9005 18.4196 16.6274 17.6046 17.3272C15.9745 18.727 14.2443 20.0301 13.225 20.7764L13.2235 20.7775C12.8645 21.0373 12.4422 21.1764 11.9993 21.1764C11.5569 21.1764 11.1336 21.0375 10.7776 20.7762C9.75833 20.0299 8.02823 18.7269 6.39828 17.3272C5.58331 16.6274 4.78983 15.9005 4.12145 15.2046C3.45673 14.5125 2.90053 13.8357 2.57487 13.2364M4.82121 4.41558C1.89905 6.20658 0.903135 10.1626 2.57487 13.2364L4.82121 4.41558ZM5.49182 5.46839C6.23377 5.01476 7.07382 4.77287 7.93016 4.77287C9.43233 4.77287 10.8221 5.48983 11.7574 6.71865L11.7583 6.7199L11.9993 7.03979L12.2404 6.7199L12.2413 6.71865C13.1767 5.48969 14.5708 4.77287 16.0685 4.77287C16.9246 4.77287 17.7649 5.01463 18.5031 5.46868C20.8746 6.92097 21.6693 10.1439 20.3063 12.6478C20.001 13.209 19.4441 13.864 18.7801 14.5365C18.111 15.214 17.3134 15.9286 16.5073 16.6097C14.895 17.9723 13.234 19.2138 12.4663 19.7772L12.4646 19.7784C12.1881 19.9787 11.8064 19.9787 11.5299 19.7784L11.5287 19.7775C10.7606 19.2159 9.09955 17.9755 7.48713 16.6128C6.68107 15.9316 5.88345 15.2168 5.21431 14.5387C4.55033 13.8658 3.99353 13.2101 3.68815 12.6479M5.83998 6.02198C3.78363 7.28512 3.06089 10.1185 4.26992 12.3397C4.52962 12.8179 5.03236 13.4204 5.68746 14.0842C6.33751 14.743 7.11882 15.4437 7.91671 16.118C9.51162 17.4659 11.158 18.6956 11.921 19.2535C11.9647 19.2849 12.0292 19.285 12.073 19.2538C12.8364 18.6936 14.4828 17.4628 16.0778 16.1149C16.8757 15.4406 17.657 14.7401 18.3071 14.0818C18.9622 13.4184 19.4649 12.8169 19.7245 12.3397C20.9338 10.1182 20.2105 7.28085 18.1546 6.02206L18.154 6.0217C17.5177 5.63024 16.7979 5.42437 16.0685 5.42437C14.7919 5.42437 13.5887 6.0338 12.7699 7.10921C12.7697 7.10942 12.7695 7.10964 12.7694 7.10985L11.9993 8.13177L11.2293 7.10985C11.2291 7.10962 11.229 7.10939 11.2288 7.10916C10.4099 6.03364 9.21078 5.42437 7.93016 5.42437C7.2011 5.42437 6.48106 5.6301 5.83998 6.02198ZM5.49182 5.46839L5.49126 5.46874L5.49182 5.46839ZM5.49126 5.46874C3.12023 6.92494 2.32509 10.1436 3.68815 12.6479L5.49126 5.46874Z" fill="#333333"/>
<path d="M11.9994 20.8235C11.6291 20.8235 11.2758 20.7078 10.9771 20.4888C8.94931 19.0054 4.1029 15.3155 2.88709 13.0801C1.29686 10.1588 2.25184 6.40697 5.0116 4.71699C5.90348 4.17156 6.91315 3.88232 7.93964 3.88232C9.47518 3.88232 10.9182 4.50212 11.9994 5.60537C13.0805 4.50212 14.5235 3.88232 16.0591 3.88232C17.0856 3.88232 18.0952 4.17156 18.9871 4.71699C21.7469 6.40697 22.7019 10.1588 21.1158 13.0801C19.9 15.3155 15.0536 19.0054 13.0259 20.4888C12.723 20.7078 12.3696 20.8235 11.9994 20.8235ZM7.93964 5.12192C7.14874 5.12192 6.37045 5.34505 5.68051 5.76651C3.47186 7.12181 2.7146 10.1382 3.99772 12.4934C5.12519 14.5677 10.1988 18.3774 11.7259 19.493C11.8858 19.6087 12.1087 19.6087 12.2686 19.493C13.7957 18.3732 18.8693 14.5635 19.9968 12.4934C21.2799 10.1382 20.5227 7.11768 18.314 5.76651C17.6283 5.34505 16.85 5.12192 16.0591 5.12192C14.675 5.12192 13.3792 5.78304 12.5042 6.93174L11.9994 7.60112L11.4945 6.93174C10.6195 5.78304 9.32794 5.12192 7.93964 5.12192Z" fill="#333333"/>
</svg>
